<svg width="128" height="54" viewBox="0 0 128 54" fill="none" xmlns="http://www.w3.org/2000/svg">
<g clip-path="url(#clip0_27_271)">
<path d="M28.3125 54.1302H99.2548L63.9719 18.8076L28.3125 54.1302Z" fill="black" fill-opacity="0.07"/>
<path d="M26.957 52.3933L32.484 46.9953L30.643 45.1051L27.1715 48.497L21.0561 42.2197L19 44.2279L26.957 52.3933Z" fill="#487B6C"/>
<path d="M33.6958 45.7659L39.3591 40.233L37.8039 38.6381L34.2079 42.1499L32.4812 40.3776L35.3627 37.563L33.7353 35.8942L30.8537 38.7073L29.3743 37.1892L32.8519 33.7917L31.2977 32.1973L25.6523 37.7116L33.6958 45.7659Z" fill="#487B6C"/>
<path d="M52.2354 19.5368C49.9515 17.1928 45.9894 17.4732 44.0813 19.3373C42.1727 21.2014 41.1987 24.9184 43.8939 27.6843C46.8543 30.7219 50.3765 29.6186 52.2851 27.7555C55.0991 25.0071 54.0974 21.4475 52.2354 19.5368ZM50.5568 26.1503C49.2934 27.3844 47.749 27.0496 45.9843 25.2383C44.5012 23.7167 44.5903 22.1878 45.6688 21.1343C46.4103 20.4099 47.9164 19.7618 49.7082 21.6008C51.7525 23.6987 51.8201 24.9163 50.5568 26.1503Z" fill="#487B6C"/>
<path d="M58.603 21.4835L60.6924 19.442L57.5492 16.2167L55.6677 8.37988L53.2726 10.7198L54.5186 15.1657L50.3091 13.6138L48.0508 15.8194L55.2273 18.1264L58.603 21.4835Z" fill="#487B6C"/>
<path d="M47.4635 32.3767C47.4635 32.3767 42.3784 30.6398 42.1367 30.6818C42.0583 30.6946 43.229 27.576 40.5988 26.1938C40.5988 26.1938 38.6472 25.1362 36.6941 26.9126L32.5312 31.0197L40.5563 39.1108L42.6795 37.037L38.3369 32.5818L45.3567 34.4346L47.4635 32.3767ZM39.5874 31.2658C38.4076 32.4162 38.2483 32.507 38.2483 32.507C38.2483 32.507 36.3986 30.609 36.3331 30.5419C36.2675 30.4747 37.6558 29.2832 37.8745 29.0694C37.9672 28.9787 38.8316 28.4142 39.547 29.1479C39.547 29.1479 40.7668 30.1133 39.5874 31.2658Z" fill="#487B6C"/>
<path d="M57.9545 9.92394L56.0977 8.04959L64.2041 0L66.8573 2.67773L63.9368 8.43204L69.891 5.73996L72.4438 8.3172L64.3373 16.3668L62.3806 14.3919L66.6596 10.1434L60.8059 12.8021L59.5958 11.5804L62.3166 5.72561L57.9545 9.92394Z" fill="#487B6C"/>
<path d="M72.0309 24.1316L66.4102 18.4588L74.5172 10.4092L80.1538 16.0989L78.5161 17.7251L74.9847 14.161L73.664 15.4719L76.4493 18.2834L74.744 19.9763L71.9756 17.1817L70.2038 18.9407L73.7019 22.4715L72.0309 24.1316Z" fill="#487B6C"/>
<path d="M90.564 26.6079L92.6529 28.7171L86.5185 34.8077L89.95 38.2703L87.9774 40.2303L82.457 34.658L90.564 26.6079Z" fill="#487B6C"/>
<path d="M89.4375 41.7029L97.5445 33.6533L99.5837 35.7112L91.4767 43.7603L89.4375 41.7029Z" fill="#487B6C"/>
<path d="M95.1727 47.4937L93.2656 45.5686L101.373 37.5195L104.142 40.3126L101.776 48.6703L107.142 43.3415L108.999 45.2159L100.893 53.265L98.4716 50.8225L100.556 42.0485L95.1727 47.4937Z" fill="#487B6C"/>
<path d="M86.9032 22.9094L81.9794 17.939L73.8555 25.9721L75.9443 28.0803L80.3734 23.6825L78.7793 30.9421L80.9178 33.101C80.9178 33.101 82.6036 27.908 82.6553 27.6917C82.6553 27.6917 84.482 28.6991 86.4863 26.9739C86.4863 26.9739 88.4087 25.0985 86.9032 22.9094ZM83.8967 25.2636C83.8967 25.2636 82.8617 25.9593 81.9497 25.0391L80.525 23.5328C80.525 23.5328 82.2462 21.8235 82.4633 21.6077C82.4633 21.6077 83.7896 22.9468 83.9556 23.114C84.121 23.2811 85.1667 24.0686 83.8967 25.2636Z" fill="#487B6C"/>
</g>
<defs>
<clipPath id="clip0_27_271">
<rect width="128" height="54" fill="white"/>
</clipPath>
</defs>
</svg>
